<?xml version="1.0" encoding="UTF-8" standalone="no"?>
<!DOCTYPE svg PUBLIC "-//W3C//DTD SVG 1.1//EN"
 "http://www.w3.org/Graphics/SVG/1.1/DTD/svg11.dtd">
<!-- Generated by graphviz version 2.43.0 (0)
 -->
<!-- Title: finite_state_machine Pages: 1 -->
<svg width="482pt" height="477pt"
 viewBox="0.00 0.00 481.98 477.00" xmlns="http://www.w3.org/2000/svg" xmlns:xlink="http://www.w3.org/1999/xlink">
<g id="graph0" class="graph" transform="scale(1 1) rotate(0) translate(4 473)">
<title>finite_state_machine</title>
<polygon fill="white" stroke="transparent" points="-4,4 -4,-473 477.98,-473 477.98,4 -4,4"/>
<g id="clust1" class="cluster">
<title>cluster_origin</title>
<polygon fill="none" stroke="Green" points="8,-187 8,-262 92.89,-262 92.89,-187 8,-187"/>
<text text-anchor="middle" x="50.45" y="-246.8" font-family="Times,serif" font-size="14.00">Origin</text>
</g>
<g id="clust2" class="cluster">
<title>cluster_people</title>
<polygon fill="none" stroke="Red" points="135.89,-52 135.89,-397 205.89,-397 205.89,-52 135.89,-52"/>
<text text-anchor="middle" x="170.89" y="-381.8" font-family="Times,serif" font-size="14.00">People</text>
</g>
<g id="clust3" class="cluster">
<title>cluster_sports</title>
<polygon fill="none" stroke="Blue" points="248.89,-8 248.89,-461 322.09,-461 322.09,-8 248.89,-8"/>
<text text-anchor="middle" x="285.49" y="-445.8" font-family="Times,serif" font-size="14.00">Sports</text>
</g>
<g id="clust4" class="cluster">
<title>cluster_destination</title>
<polygon fill="none" stroke="Purple" points="374.09,-197 374.09,-272 472.98,-272 472.98,-197 374.09,-197"/>
<text text-anchor="middle" x="423.54" y="-256.8" font-family="Times,serif" font-size="14.00">Destination</text>
</g>
<!-- 1000 -->
<g id="node1" class="node">
<title>1000</title>
<ellipse fill="none" stroke="black" cx="50.45" cy="-213" rx="34.39" ry="18"/>
<text text-anchor="middle" x="50.45" y="-209.3" font-family="Times,serif" font-size="14.00">1000</text>
</g>
<!-- 1 -->
<g id="node2" class="node">
<title>1</title>
<ellipse fill="none" stroke="black" cx="170.89" cy="-348" rx="27" ry="18"/>
<text text-anchor="middle" x="170.89" y="-344.3" font-family="Times,serif" font-size="14.00">1</text>
</g>
<!-- 1000&#45;&gt;1 -->
<g id="edge20" class="edge">
<title>1000&#45;&gt;1</title>
<path fill="none" stroke="black" d="M62.48,-229.89C77.51,-252.19 105.99,-292.01 135.89,-321 138.46,-323.49 141.24,-325.98 144.08,-328.39"/>
<polygon fill="black" stroke="black" points="142.08,-331.28 152.04,-334.9 146.51,-325.86 142.08,-331.28"/>
<text text-anchor="middle" x="114.39" y="-313.8" font-family="Times,serif" font-size="14.00">1/1</text>
</g>
<!-- 2 -->
<g id="node3" class="node">
<title>2</title>
<ellipse fill="none" stroke="black" cx="170.89" cy="-240" rx="27" ry="18"/>
<text text-anchor="middle" x="170.89" y="-236.3" font-family="Times,serif" font-size="14.00">2</text>
</g>
<!-- 1000&#45;&gt;2 -->
<g id="edge21" class="edge">
<title>1000&#45;&gt;2</title>
<path fill="none" stroke="black" d="M82.26,-220.02C98.49,-223.72 118.46,-228.28 135.23,-232.1"/>
<polygon fill="black" stroke="black" points="134.67,-235.56 145.2,-234.37 136.23,-228.74 134.67,-235.56"/>
<text text-anchor="middle" x="114.39" y="-232.8" font-family="Times,serif" font-size="14.00">1/1</text>
</g>
<!-- 3 -->
<g id="node4" class="node">
<title>3</title>
<ellipse fill="none" stroke="black" cx="170.89" cy="-294" rx="27" ry="18"/>
<text text-anchor="middle" x="170.89" y="-290.3" font-family="Times,serif" font-size="14.00">3</text>
</g>
<!-- 1000&#45;&gt;3 -->
<g id="edge22" class="edge">
<title>1000&#45;&gt;3</title>
<path fill="none" stroke="black" d="M72.08,-227.11C91.77,-240.57 121.54,-260.93 143.06,-275.65"/>
<polygon fill="black" stroke="black" points="141.21,-278.63 151.44,-281.38 145.16,-272.85 141.21,-278.63"/>
<text text-anchor="middle" x="114.39" y="-266.8" font-family="Times,serif" font-size="14.00">1/1</text>
</g>
<!-- 4 -->
<g id="node5" class="node">
<title>4</title>
<ellipse fill="none" stroke="black" cx="170.89" cy="-186" rx="27" ry="18"/>
<text text-anchor="middle" x="170.89" y="-182.3" font-family="Times,serif" font-size="14.00">4</text>
</g>
<!-- 1000&#45;&gt;4 -->
<g id="edge23" class="edge">
<title>1000&#45;&gt;4</title>
<path fill="none" stroke="black" d="M82.26,-205.98C98.49,-202.28 118.46,-197.72 135.23,-193.9"/>
<polygon fill="black" stroke="black" points="136.23,-197.26 145.2,-191.63 134.67,-190.44 136.23,-197.26"/>
<text text-anchor="middle" x="114.39" y="-204.8" font-family="Times,serif" font-size="14.00">1/1</text>
</g>
<!-- 5 -->
<g id="node6" class="node">
<title>5</title>
<ellipse fill="none" stroke="black" cx="170.89" cy="-132" rx="27" ry="18"/>
<text text-anchor="middle" x="170.89" y="-128.3" font-family="Times,serif" font-size="14.00">5</text>
</g>
<!-- 1000&#45;&gt;5 -->
<g id="edge24" class="edge">
<title>1000&#45;&gt;5</title>
<path fill="none" stroke="black" d="M71.91,-198.55C81.32,-191.93 92.64,-184.03 102.89,-177 115.91,-168.07 130.45,-158.29 142.64,-150.13"/>
<polygon fill="black" stroke="black" points="144.68,-152.98 151.06,-144.51 140.8,-147.16 144.68,-152.98"/>
<text text-anchor="middle" x="114.39" y="-180.8" font-family="Times,serif" font-size="14.00">1/1</text>
</g>
<!-- 6 -->
<g id="node7" class="node">
<title>6</title>
<ellipse fill="none" stroke="black" cx="170.89" cy="-78" rx="27" ry="18"/>
<text text-anchor="middle" x="170.89" y="-74.3" font-family="Times,serif" font-size="14.00">6</text>
</g>
<!-- 1000&#45;&gt;6 -->
<g id="edge25" class="edge">
<title>1000&#45;&gt;6</title>
<path fill="none" stroke="black" d="M62.42,-196.05C77.39,-173.69 105.8,-133.8 135.89,-105 138.48,-102.53 141.27,-100.04 144.11,-97.64"/>
<polygon fill="black" stroke="black" points="146.54,-100.17 152.08,-91.14 142.12,-94.75 146.54,-100.17"/>
<text text-anchor="middle" x="114.39" y="-144.8" font-family="Times,serif" font-size="14.00">1/1</text>
</g>
<!-- 102 -->
<g id="node9" class="node">
<title>102</title>
<ellipse fill="none" stroke="black" cx="285.49" cy="-412" rx="28.7" ry="18"/>
<text text-anchor="middle" x="285.49" y="-408.3" font-family="Times,serif" font-size="14.00">102</text>
</g>
<!-- 1&#45;&gt;102 -->
<g id="edge2" class="edge">
<title>1&#45;&gt;102</title>
<path fill="none" stroke="black" d="M191.54,-359.77C199.12,-364.27 207.88,-369.42 215.89,-374 228.51,-381.22 242.54,-389.03 254.6,-395.68"/>
<polygon fill="black" stroke="black" points="252.94,-398.76 263.39,-400.51 256.31,-392.62 252.94,-398.76"/>
<text text-anchor="middle" x="227.39" y="-389.8" font-family="Times,serif" font-size="14.00">1/1</text>
</g>
<!-- 104 -->
<g id="node11" class="node">
<title>104</title>
<ellipse fill="none" stroke="black" cx="285.49" cy="-358" rx="28.7" ry="18"/>
<text text-anchor="middle" x="285.49" y="-354.3" font-family="Times,serif" font-size="14.00">104</text>
</g>
<!-- 1&#45;&gt;104 -->
<g id="edge1" class="edge">
<title>1&#45;&gt;104</title>
<path fill="none" stroke="black" d="M197.45,-351.82C203.49,-352.63 209.91,-353.42 215.89,-354 225.85,-354.97 236.65,-355.73 246.66,-356.32"/>
<polygon fill="black" stroke="black" points="246.57,-359.82 256.75,-356.87 246.96,-352.83 246.57,-359.82"/>
<text text-anchor="middle" x="227.39" y="-358.8" font-family="Times,serif" font-size="14.00">0/1</text>
</g>
<!-- 101 -->
<g id="node8" class="node">
<title>101</title>
<ellipse fill="none" stroke="black" cx="285.49" cy="-304" rx="28.7" ry="18"/>
<text text-anchor="middle" x="285.49" y="-300.3" font-family="Times,serif" font-size="14.00">101</text>
</g>
<!-- 2&#45;&gt;101 -->
<g id="edge4" class="edge">
<title>2&#45;&gt;101</title>
<path fill="none" stroke="black" d="M192.02,-251.44C209.5,-261.37 235.03,-275.89 254.85,-287.15"/>
<polygon fill="black" stroke="black" points="253.35,-290.33 263.77,-292.22 256.81,-284.24 253.35,-290.33"/>
<text text-anchor="middle" x="227.39" y="-280.8" font-family="Times,serif" font-size="14.00">1/1</text>
</g>
<!-- 105 -->
<g id="node12" class="node">
<title>105</title>
<ellipse fill="none" stroke="black" cx="285.49" cy="-196" rx="28.7" ry="18"/>
<text text-anchor="middle" x="285.49" y="-192.3" font-family="Times,serif" font-size="14.00">105</text>
</g>
<!-- 2&#45;&gt;105 -->
<g id="edge3" class="edge">
<title>2&#45;&gt;105</title>
<path fill="none" stroke="black" d="M194.68,-231.1C210.91,-224.75 232.99,-216.13 251.19,-209.01"/>
<polygon fill="black" stroke="black" points="252.53,-212.25 260.57,-205.35 249.99,-205.73 252.53,-212.25"/>
<text text-anchor="middle" x="227.39" y="-224.8" font-family="Times,serif" font-size="14.00">0/1</text>
</g>
<!-- 3&#45;&gt;101 -->
<g id="edge5" class="edge">
<title>3&#45;&gt;101</title>
<path fill="none" stroke="black" d="M197.73,-296.29C212.21,-297.58 230.55,-299.21 246.63,-300.64"/>
<polygon fill="black" stroke="black" points="246.54,-304.14 256.81,-301.54 247.16,-297.17 246.54,-304.14"/>
<text text-anchor="middle" x="227.39" y="-302.8" font-family="Times,serif" font-size="14.00">0/1</text>
</g>
<!-- 3&#45;&gt;104 -->
<g id="edge6" class="edge">
<title>3&#45;&gt;104</title>
<path fill="none" stroke="black" d="M192.02,-305.44C209.5,-315.37 235.03,-329.89 254.85,-341.15"/>
<polygon fill="black" stroke="black" points="253.35,-344.33 263.77,-346.22 256.81,-338.24 253.35,-344.33"/>
<text text-anchor="middle" x="227.39" y="-334.8" font-family="Times,serif" font-size="14.00">1/1</text>
</g>
<!-- 103 -->
<g id="node10" class="node">
<title>103</title>
<ellipse fill="none" stroke="black" cx="285.49" cy="-250" rx="28.7" ry="18"/>
<text text-anchor="middle" x="285.49" y="-246.3" font-family="Times,serif" font-size="14.00">103</text>
</g>
<!-- 4&#45;&gt;103 -->
<g id="edge8" class="edge">
<title>4&#45;&gt;103</title>
<path fill="none" stroke="black" d="M197.61,-183.41C211.25,-183.41 227.49,-185.77 238.89,-195 249.16,-203.32 241.08,-212.34 248.89,-223 250.96,-225.82 253.4,-228.48 256.01,-230.95"/>
<polygon fill="black" stroke="black" points="254.28,-234.06 264.2,-237.77 258.76,-228.68 254.28,-234.06"/>
<text text-anchor="middle" x="227.39" y="-198.8" font-family="Times,serif" font-size="14.00">1/1</text>
</g>
<!-- 108 -->
<g id="node15" class="node">
<title>108</title>
<ellipse fill="none" stroke="black" cx="285.49" cy="-34" rx="28.7" ry="18"/>
<text text-anchor="middle" x="285.49" y="-30.3" font-family="Times,serif" font-size="14.00">108</text>
</g>
<!-- 4&#45;&gt;108 -->
<g id="edge7" class="edge">
<title>4&#45;&gt;108</title>
<path fill="none" stroke="black" d="M191.71,-174.19C207.41,-163.67 228.38,-146.75 238.89,-126 252.11,-99.93 233.93,-86.11 248.89,-61 250.68,-58 252.94,-55.22 255.45,-52.68"/>
<polygon fill="black" stroke="black" points="258.19,-54.94 263.51,-45.77 253.64,-49.62 258.19,-54.94"/>
<text text-anchor="middle" x="227.39" y="-157.8" font-family="Times,serif" font-size="14.00">0/1</text>
</g>
<!-- 5&#45;&gt;105 -->
<g id="edge9" class="edge">
<title>5&#45;&gt;105</title>
<path fill="none" stroke="black" d="M189.07,-118.51C203.76,-108.7 224.72,-99.06 238.89,-111 258.9,-127.85 235.3,-146.65 248.89,-169 250.71,-171.98 252.98,-174.75 255.5,-177.29"/>
<polygon fill="black" stroke="black" points="253.7,-180.35 263.57,-184.19 258.25,-175.03 253.7,-180.35"/>
<text text-anchor="middle" x="227.39" y="-114.8" font-family="Times,serif" font-size="14.00">1/1</text>
</g>
<!-- 5&#45;&gt;108 -->
<g id="edge10" class="edge">
<title>5&#45;&gt;108</title>
<path fill="none" stroke="black" d="M190.43,-119.53C195.83,-115.33 201.47,-110.34 205.89,-105 211.98,-97.65 209.72,-93.28 215.89,-86 227.15,-72.72 242.37,-60.76 255.61,-51.67"/>
<polygon fill="black" stroke="black" points="257.57,-54.57 263.96,-46.12 253.7,-48.74 257.57,-54.57"/>
<text text-anchor="middle" x="227.39" y="-89.8" font-family="Times,serif" font-size="14.00">0/1</text>
</g>
<!-- 6&#45;&gt;108 -->
<g id="edge11" class="edge">
<title>6&#45;&gt;108</title>
<path fill="none" stroke="black" d="M183.34,-61.76C191.24,-52.02 202.68,-40.5 215.89,-35 225.63,-30.95 236.83,-29.58 247.32,-29.52"/>
<polygon fill="black" stroke="black" points="247.39,-33.03 257.49,-29.85 247.61,-26.03 247.39,-33.03"/>
<text text-anchor="middle" x="227.39" y="-38.8" font-family="Times,serif" font-size="14.00">1/1</text>
</g>
<!-- 1001 -->
<g id="node16" class="node">
<title>1001</title>
<ellipse fill="none" stroke="black" cx="423.54" cy="-223" rx="34.39" ry="18"/>
<text text-anchor="middle" x="423.54" y="-219.3" font-family="Times,serif" font-size="14.00">1001</text>
</g>
<!-- 101&#45;&gt;1001 -->
<g id="edge12" class="edge">
<title>101&#45;&gt;1001</title>
<path fill="none" stroke="black" d="M307.33,-292.12C323,-283.13 344.97,-270.43 364.09,-259 373.22,-253.54 383.09,-247.51 392.07,-241.98"/>
<polygon fill="black" stroke="black" points="394.03,-244.88 400.69,-236.64 390.35,-238.93 394.03,-244.88"/>
<text text-anchor="middle" x="348.09" y="-280.8" font-family="Times,serif" font-size="14.00">1/20</text>
</g>
<!-- 102&#45;&gt;1001 -->
<g id="edge13" class="edge">
<title>102&#45;&gt;1001</title>
<path fill="none" stroke="black" d="M305.01,-398.77C310.64,-394.54 316.74,-389.72 322.09,-385 342.12,-367.32 348.67,-363.82 364.09,-342 384.63,-312.92 401.69,-275.54 411.97,-250.5"/>
<polygon fill="black" stroke="black" points="415.35,-251.49 415.83,-240.91 408.85,-248.88 415.35,-251.49"/>
<text text-anchor="middle" x="348.09" y="-378.8" font-family="Times,serif" font-size="14.00">1/24</text>
</g>
<!-- 103&#45;&gt;1001 -->
<g id="edge14" class="edge">
<title>103&#45;&gt;1001</title>
<path fill="none" stroke="black" d="M313.05,-244.73C332.27,-240.91 358.64,-235.68 380.69,-231.31"/>
<polygon fill="black" stroke="black" points="381.66,-234.68 390.79,-229.3 380.3,-227.81 381.66,-234.68"/>
<text text-anchor="middle" x="348.09" y="-243.8" font-family="Times,serif" font-size="14.00">1/13</text>
</g>
<!-- 104&#45;&gt;1001 -->
<g id="edge15" class="edge">
<title>104&#45;&gt;1001</title>
<path fill="none" stroke="black" d="M304.72,-344.42C310.34,-340.18 316.5,-335.44 322.09,-331 341.11,-315.88 347.08,-313.35 364.09,-296 378.82,-280.98 393.61,-262.46 404.63,-247.84"/>
<polygon fill="black" stroke="black" points="407.49,-249.85 410.65,-239.73 401.88,-245.67 407.49,-249.85"/>
<text text-anchor="middle" x="348.09" y="-326.8" font-family="Times,serif" font-size="14.00">1/15</text>
</g>
<!-- 105&#45;&gt;1001 -->
<g id="edge16" class="edge">
<title>105&#45;&gt;1001</title>
<path fill="none" stroke="black" d="M313.05,-201.27C332.27,-205.09 358.64,-210.32 380.69,-214.69"/>
<polygon fill="black" stroke="black" points="380.3,-218.19 390.79,-216.7 381.66,-211.32 380.3,-218.19"/>
<text text-anchor="middle" x="348.09" y="-214.8" font-family="Times,serif" font-size="14.00">1/7</text>
</g>
<!-- 106 -->
<g id="node13" class="node">
<title>106</title>
<ellipse fill="none" stroke="black" cx="285.49" cy="-142" rx="28.7" ry="18"/>
<text text-anchor="middle" x="285.49" y="-138.3" font-family="Times,serif" font-size="14.00">106</text>
</g>
<!-- 106&#45;&gt;1001 -->
<g id="edge17" class="edge">
<title>106&#45;&gt;1001</title>
<path fill="none" stroke="black" d="M307.73,-153.68C323.42,-162.39 345.23,-174.69 364.09,-186 373.53,-191.66 383.71,-198.02 392.88,-203.84"/>
<polygon fill="black" stroke="black" points="391,-206.79 401.31,-209.22 394.77,-200.89 391,-206.79"/>
<text text-anchor="middle" x="348.09" y="-189.8" font-family="Times,serif" font-size="14.00">0/1</text>
</g>
<!-- 107 -->
<g id="node14" class="node">
<title>107</title>
<ellipse fill="none" stroke="black" cx="285.49" cy="-88" rx="28.7" ry="18"/>
<text text-anchor="middle" x="285.49" y="-84.3" font-family="Times,serif" font-size="14.00">107</text>
</g>
<!-- 107&#45;&gt;1001 -->
<g id="edge18" class="edge">
<title>107&#45;&gt;1001</title>
<path fill="none" stroke="black" d="M304.65,-101.68C310.25,-105.93 316.44,-110.64 322.09,-115 340.88,-129.51 347.34,-131.18 364.09,-148 379.28,-163.25 394.16,-182.43 405.11,-197.57"/>
<polygon fill="black" stroke="black" points="402.42,-199.84 411.07,-205.96 408.13,-195.78 402.42,-199.84"/>
<text text-anchor="middle" x="348.09" y="-151.8" font-family="Times,serif" font-size="14.00">0/15</text>
</g>
<!-- 108&#45;&gt;1001 -->
<g id="edge19" class="edge">
<title>108&#45;&gt;1001</title>
<path fill="none" stroke="black" d="M305.01,-47.23C310.64,-51.46 316.74,-56.28 322.09,-61 342.12,-78.68 348.67,-82.18 364.09,-104 384.63,-133.08 401.69,-170.46 411.97,-195.5"/>
<polygon fill="black" stroke="black" points="408.85,-197.12 415.83,-205.09 415.35,-194.51 408.85,-197.12"/>
<text text-anchor="middle" x="348.09" y="-107.8" font-family="Times,serif" font-size="14.00">1/1</text>
</g>
</g>
</svg>
